<svg width="1232" height="1080" viewBox="0 0 1232 1080" fill="none" xmlns="http://www.w3.org/2000/svg">
<path d="M558.97 378.956L543.358 345.352L176.245 776.561L77.9641 943.948L558.97 378.956Z" fill="url(#paint0_linear_922_1170)"/>
<path d="M818.173 937.063L807.331 913.644L112.435 1040.29L201.463 1040.29C379.996 1024.96 734.169 950.295 818.173 937.063Z" fill="url(#paint1_linear_922_1170)"/>
<path d="M639.765 2.3339e-10L588.987 86.4703L1130.44 1021.81L1231.29 1021.81L639.765 2.3339e-10Z" fill="url(#paint2_linear_922_1170)"/>
<path d="M251.504 1040.43L818.2 937.173L807.357 913.755L558.937 379.035L543.326 345.431L176.18 776.64L1.26884e-08 983.629L543.326 58.222L570.479 105.091L1111.93 1040.43L1134.85 1080L34.5302 1080L251.504 1040.43Z" fill="url(#paint3_linear_922_1170)"/>
<defs>
<linearGradient id="paint0_linear_922_1170" x1="-77.405" y1="538.704" x2="336.899" y2="1054.04" gradientUnits="userSpaceOnUse">
<stop stop-color="#B87926"/>
<stop offset="0.505208" stop-color="#FAD279"/>
<stop offset="1" stop-color="#DB9C44"/>
</linearGradient>
<linearGradient id="paint1_linear_922_1170" x1="-115.525" y1="954.551" x2="-94.9922" y2="1131.67" gradientUnits="userSpaceOnUse">
<stop stop-color="#B87926"/>
<stop offset="0.505208" stop-color="#FAD279"/>
<stop offset="1" stop-color="#DB9C44"/>
</linearGradient>
<linearGradient id="paint2_linear_922_1170" x1="381.517" y1="330.053" x2="1105.37" y2="1034.39" gradientUnits="userSpaceOnUse">
<stop stop-color="#B87926"/>
<stop offset="0.505208" stop-color="#FAD279"/>
<stop offset="1" stop-color="#DB9C44"/>
</linearGradient>
<linearGradient id="paint3_linear_922_1170" x1="-366.568" y1="409.28" x2="306.464" y2="1497.12" gradientUnits="userSpaceOnUse">
<stop stop-color="#1D4A46"/>
<stop offset="0.489583" stop-color="#2D8F83"/>
<stop offset="1" stop-color="#062E29"/>
</linearGradient>
</defs>
</svg>
