<svg width="427" height="179" viewBox="0 0 427 179" fill="none" xmlns="http://www.w3.org/2000/svg">
<rect width="179" height="179" rx="89.5" fill="#979797"/>
<path d="M171.02 58.508C162.536 55.8147 156.408 52.4817 152.638 48.509C148.867 44.469 146.982 39.5537 146.982 33.763C146.982 27.4337 149.17 22.451 153.547 18.815C157.991 15.1117 164.32 13.26 172.535 13.26C178.729 13.26 184.352 13.967 189.402 15.381C191.018 15.8523 192.297 16.8287 193.24 18.31C194.25 19.724 194.755 21.3063 194.755 23.057V25.986C194.755 27.3327 194.182 28.3763 193.038 29.117C191.893 29.8577 190.681 29.9923 189.402 29.521C183.678 27.501 178.393 26.491 173.545 26.491C167.35 26.491 164.253 28.915 164.253 33.763C164.253 37.8703 166.946 40.7993 172.333 42.55C181.625 45.378 188.055 48.6773 191.624 52.448C195.26 56.2187 197.078 61.1677 197.078 67.295C197.078 81.7717 187.954 89.01 169.707 89.01C163.916 89.01 158.664 88.101 153.951 86.283C152.335 85.677 151.055 84.6333 150.113 83.152C149.237 81.6033 148.8 79.92 148.8 78.102V74.87C148.8 73.658 149.338 72.749 150.416 72.143C151.493 71.4697 152.57 71.4023 153.648 71.941C158.563 74.365 163.579 75.577 168.697 75.577C172.265 75.577 174.959 74.9037 176.777 73.557C178.662 72.143 179.605 70.1567 179.605 67.598C179.605 65.376 178.965 63.558 177.686 62.144C176.406 60.73 174.184 59.518 171.02 58.508ZM213.631 88C212.082 88 210.735 87.4277 209.591 86.283C208.446 85.1383 207.874 83.7917 207.874 82.243V41.237C207.874 39.6883 208.446 38.3417 209.591 37.197C210.735 36.0523 212.082 35.48 213.631 35.48H217.368C218.984 35.48 220.33 36.0523 221.408 37.197C222.552 38.2743 223.192 39.621 223.327 41.237L223.428 42.146C223.428 42.2133 223.461 42.247 223.529 42.247C223.663 42.247 223.731 42.2133 223.731 42.146C227.703 37.0287 232.248 34.47 237.366 34.47C240.463 34.47 242.921 35.0423 244.739 36.187C246.557 37.2643 248.24 39.217 249.789 42.045C249.789 42.1797 249.856 42.247 249.991 42.247L250.193 42.045C254.839 36.995 259.687 34.47 264.737 34.47C270.46 34.47 274.601 36.0187 277.16 39.116C279.718 42.146 280.998 47.3307 280.998 54.67V82.243C280.998 83.7917 280.425 85.1383 279.281 86.283C278.136 87.4277 276.789 88 275.241 88H270.797C269.248 88 267.901 87.4277 266.757 86.283C265.612 85.1383 265.04 83.7917 265.04 82.243V55.68C265.04 52.044 264.636 49.6537 263.828 48.509C263.02 47.297 261.505 46.691 259.283 46.691C257.734 46.691 256.219 47.3307 254.738 48.61C253.324 49.8893 252.617 51.135 252.617 52.347V82.243C252.617 83.7917 252.044 85.1383 250.9 86.283C249.755 87.4277 248.408 88 246.86 88H242.416C240.867 88 239.52 87.4277 238.376 86.283C237.231 85.1383 236.659 83.7917 236.659 82.243V55.68C236.659 52.044 236.255 49.6537 235.447 48.509C234.706 47.297 233.225 46.691 231.003 46.691C229.454 46.691 227.939 47.3307 226.458 48.61C224.976 49.8893 224.236 51.135 224.236 52.347V82.243C224.236 83.7917 223.663 85.1383 222.519 86.283C221.374 87.4277 220.027 88 218.479 88H213.631ZM302.065 88C300.516 88 299.169 87.4277 298.025 86.283C296.88 85.1383 296.308 83.7917 296.308 82.243V41.237C296.308 39.6883 296.88 38.3417 298.025 37.197C299.169 36.0523 300.516 35.48 302.065 35.48H307.721C309.269 35.48 310.616 36.0523 311.761 37.197C312.905 38.3417 313.478 39.6883 313.478 41.237V82.243C313.478 83.7917 312.905 85.1383 311.761 86.283C310.616 87.4277 309.269 88 307.721 88H302.065ZM302.065 25.38C300.516 25.38 299.169 24.8077 298.025 23.663C296.88 22.5183 296.308 21.1717 296.308 19.623V18.007C296.308 16.4583 296.88 15.1117 298.025 13.967C299.169 12.8223 300.516 12.25 302.065 12.25H307.721C309.269 12.25 310.616 12.8223 311.761 13.967C312.905 15.1117 313.478 16.4583 313.478 18.007V19.623C313.478 21.1717 312.905 22.5183 311.761 23.663C310.616 24.8077 309.269 25.38 307.721 25.38H302.065ZM335.6 88C334.051 88 332.705 87.4277 331.56 86.283C330.415 85.1383 329.843 83.7917 329.843 82.243V18.007C329.843 16.4583 330.415 15.1117 331.56 13.967C332.705 12.8223 334.051 12.25 335.6 12.25H341.256C342.805 12.25 344.151 12.8223 345.296 13.967C346.441 15.1117 347.013 16.4583 347.013 18.007V82.243C347.013 83.7917 346.441 85.1383 345.296 86.283C344.151 87.4277 342.805 88 341.256 88H335.6ZM385.349 45.479C382.319 45.479 380.029 46.287 378.481 47.903C376.932 49.4517 375.956 52.145 375.552 55.983C375.552 56.5217 375.787 56.791 376.259 56.791H393.328C393.934 56.791 394.237 56.488 394.237 55.882C393.967 48.9467 391.005 45.479 385.349 45.479ZM387.874 89.01C378.716 89.01 371.646 86.687 366.664 82.041C361.748 77.395 359.291 70.628 359.291 61.74C359.291 52.9193 361.479 46.186 365.856 41.54C370.3 36.8267 376.696 34.47 385.046 34.47C401.071 34.47 409.218 43.2233 409.488 60.73C409.488 62.346 408.848 63.7263 407.569 64.871C406.357 65.9483 404.943 66.487 403.327 66.487H376.36C375.686 66.487 375.417 66.79 375.552 67.396C376.09 71.0993 377.504 73.759 379.794 75.375C382.15 76.9237 385.652 77.698 390.298 77.698C393.328 77.698 396.593 77.2603 400.095 76.385C401.509 76.0483 402.754 76.3177 403.832 77.193C404.976 78.0683 405.549 79.213 405.549 80.627V80.829C405.549 82.5123 405.01 84.061 403.933 85.475C402.923 86.8217 401.61 87.6297 399.994 87.899C396.088 88.6397 392.048 89.01 387.874 89.01Z" fill="#DBDBDB"/>
<path d="M153.293 115.604V121.694C153.293 121.849 153.38 121.945 153.554 121.984C154.231 122.081 154.869 122.129 155.468 122.129C157.073 122.129 158.242 121.839 158.977 121.259C159.731 120.66 160.108 119.751 160.108 118.533C160.108 117.45 159.673 116.658 158.803 116.155C157.952 115.633 156.531 115.372 154.54 115.372H153.525C153.37 115.372 153.293 115.449 153.293 115.604ZM153.293 107.136V112.095C153.293 112.269 153.37 112.356 153.525 112.356H154.366C156.164 112.356 157.459 112.114 158.252 111.631C159.064 111.128 159.47 110.394 159.47 109.427C159.47 108.499 159.141 107.813 158.484 107.368C157.827 106.923 156.754 106.701 155.265 106.701C154.588 106.701 154.008 106.74 153.525 106.817C153.37 106.856 153.293 106.962 153.293 107.136ZM150.915 125.058C150.451 125.019 150.064 124.826 149.755 124.478C149.446 124.111 149.291 123.685 149.291 123.202V105.628C149.291 105.145 149.446 104.729 149.755 104.381C150.064 104.014 150.461 103.811 150.944 103.772C152.375 103.617 153.757 103.54 155.091 103.54C160.504 103.54 163.211 105.309 163.211 108.847C163.211 110.026 162.815 111.051 162.022 111.921C161.229 112.791 160.185 113.352 158.89 113.603C158.871 113.603 158.861 113.613 158.861 113.632C158.861 113.671 158.871 113.69 158.89 113.69C160.475 113.922 161.713 114.512 162.602 115.459C163.511 116.387 163.965 117.537 163.965 118.91C163.965 121.037 163.269 122.632 161.877 123.695C160.485 124.758 158.32 125.29 155.381 125.29C153.912 125.29 152.423 125.213 150.915 125.058ZM175.83 113.661C175.269 112.849 174.419 112.443 173.278 112.443C172.137 112.443 171.277 112.849 170.697 113.661C170.136 114.454 169.856 115.72 169.856 117.46C169.856 119.2 170.136 120.476 170.697 121.288C171.277 122.081 172.137 122.477 173.278 122.477C174.419 122.477 175.269 122.081 175.83 121.288C176.41 120.476 176.7 119.2 176.7 117.46C176.7 115.72 176.41 114.454 175.83 113.661ZM178.672 123.26C177.396 124.613 175.598 125.29 173.278 125.29C170.958 125.29 169.15 124.613 167.855 123.26C166.579 121.887 165.941 119.954 165.941 117.46C165.941 114.966 166.579 113.042 167.855 111.689C169.15 110.316 170.958 109.63 173.278 109.63C175.598 109.63 177.396 110.316 178.672 111.689C179.967 113.042 180.615 114.966 180.615 117.46C180.615 119.954 179.967 121.887 178.672 123.26ZM185.261 125C184.817 125 184.43 124.836 184.101 124.507C183.773 124.178 183.608 123.792 183.608 123.347V111.573C183.608 111.128 183.773 110.742 184.101 110.413C184.43 110.084 184.817 109.92 185.261 109.92H185.638C186.102 109.92 186.489 110.084 186.798 110.413C187.127 110.722 187.301 111.109 187.32 111.573V111.776C187.32 111.795 187.33 111.805 187.349 111.805C187.369 111.805 187.388 111.795 187.407 111.776C188.722 110.345 190.259 109.63 192.018 109.63C193.778 109.63 195.054 110.133 195.846 111.138C196.658 112.124 197.064 113.777 197.064 116.097V123.347C197.064 123.792 196.9 124.178 196.571 124.507C196.243 124.836 195.856 125 195.411 125H194.918C194.474 125 194.087 124.836 193.758 124.507C193.449 124.178 193.294 123.792 193.294 123.347V116.387C193.294 114.937 193.101 113.951 192.714 113.429C192.347 112.888 191.68 112.617 190.713 112.617C189.921 112.617 189.186 112.955 188.509 113.632C187.833 114.309 187.494 115.034 187.494 115.807V123.347C187.494 123.792 187.33 124.178 187.001 124.507C186.673 124.836 186.286 125 185.841 125H185.261ZM207.205 112.53C204.982 112.53 203.87 114.173 203.87 117.46C203.87 119.103 204.17 120.341 204.769 121.172C205.368 121.984 206.18 122.39 207.205 122.39C208.114 122.39 208.897 122.09 209.554 121.491C210.211 120.892 210.54 120.205 210.54 119.432V115.488C210.54 114.715 210.211 114.028 209.554 113.429C208.897 112.83 208.114 112.53 207.205 112.53ZM206.045 125.29C204.324 125.29 202.894 124.594 201.753 123.202C200.612 121.791 200.042 119.877 200.042 117.46C200.042 114.966 200.583 113.042 201.666 111.689C202.768 110.316 204.228 109.63 206.045 109.63C207.688 109.63 209.138 110.229 210.395 111.428C210.414 111.447 210.434 111.457 210.453 111.457C210.472 111.457 210.482 111.447 210.482 111.428V104.903C210.482 104.458 210.646 104.072 210.975 103.743C211.304 103.414 211.69 103.25 212.135 103.25H212.715C213.16 103.25 213.546 103.414 213.875 103.743C214.204 104.072 214.368 104.458 214.368 104.903V123.347C214.368 123.792 214.204 124.178 213.875 124.507C213.546 124.836 213.16 125 212.715 125H212.396C211.932 125 211.536 124.845 211.207 124.536C210.898 124.207 210.733 123.811 210.714 123.347L210.685 123.144C210.685 123.125 210.675 123.115 210.656 123.115C210.637 123.115 210.617 123.125 210.598 123.144C209.322 124.575 207.804 125.29 206.045 125.29ZM157.933 154.29C154.878 154.29 152.452 153.352 150.654 151.477C148.875 149.582 147.986 146.895 147.986 143.415C147.986 139.974 148.846 137.306 150.567 135.411C152.307 133.497 154.733 132.54 157.846 132.54C159.277 132.54 160.475 132.627 161.442 132.801C161.906 132.878 162.293 133.11 162.602 133.497C162.911 133.884 163.066 134.319 163.066 134.802V135.034C163.066 135.44 162.892 135.759 162.544 135.991C162.215 136.223 161.858 136.291 161.471 136.194C160.524 135.943 159.46 135.817 158.281 135.817C156.367 135.817 154.859 136.474 153.757 137.789C152.674 139.104 152.133 140.979 152.133 143.415C152.133 145.832 152.694 147.707 153.815 149.041C154.956 150.356 156.473 151.013 158.368 151.013C159.644 151.013 160.736 150.897 161.645 150.665C162.032 150.568 162.389 150.636 162.718 150.868C163.066 151.1 163.24 151.419 163.24 151.825V152.028C163.24 152.511 163.085 152.946 162.776 153.333C162.486 153.7 162.099 153.923 161.616 154C160.514 154.193 159.286 154.29 157.933 154.29ZM175.972 142.661C175.411 141.849 174.56 141.443 173.42 141.443C172.279 141.443 171.419 141.849 170.839 142.661C170.278 143.454 169.998 144.72 169.998 146.46C169.998 148.2 170.278 149.476 170.839 150.288C171.419 151.081 172.279 151.477 173.42 151.477C174.56 151.477 175.411 151.081 175.972 150.288C176.552 149.476 176.842 148.2 176.842 146.46C176.842 144.72 176.552 143.454 175.972 142.661ZM178.814 152.26C177.538 153.613 175.74 154.29 173.42 154.29C171.1 154.29 169.292 153.613 167.997 152.26C166.721 150.887 166.083 148.954 166.083 146.46C166.083 143.966 166.721 142.042 167.997 140.689C169.292 139.316 171.1 138.63 173.42 138.63C175.74 138.63 177.538 139.316 178.814 140.689C180.109 142.042 180.757 143.966 180.757 146.46C180.757 148.954 180.109 150.887 178.814 152.26ZM185.403 154C184.958 154 184.572 153.836 184.243 153.507C183.914 153.178 183.75 152.792 183.75 152.347V140.573C183.75 140.128 183.914 139.742 184.243 139.413C184.572 139.084 184.958 138.92 185.403 138.92H185.78C186.244 138.92 186.631 139.084 186.94 139.413C187.269 139.722 187.443 140.109 187.462 140.573V140.776C187.462 140.795 187.472 140.805 187.491 140.805C187.51 140.805 187.53 140.795 187.549 140.776C188.864 139.345 190.401 138.63 192.16 138.63C193.919 138.63 195.195 139.133 195.988 140.138C196.8 141.124 197.206 142.777 197.206 145.097V152.347C197.206 152.792 197.042 153.178 196.713 153.507C196.384 153.836 195.998 154 195.553 154H195.06C194.615 154 194.229 153.836 193.9 153.507C193.591 153.178 193.436 152.792 193.436 152.347V145.387C193.436 143.937 193.243 142.951 192.856 142.429C192.489 141.888 191.822 141.617 190.855 141.617C190.062 141.617 189.328 141.955 188.651 142.632C187.974 143.309 187.636 144.034 187.636 144.807V152.347C187.636 152.792 187.472 153.178 187.143 153.507C186.814 153.836 186.428 154 185.983 154H185.403ZM206.245 147.91C204.215 147.465 202.765 146.856 201.895 146.083C201.044 145.31 200.619 144.304 200.619 143.067C200.619 141.675 201.131 140.592 202.156 139.819C203.2 139.026 204.737 138.63 206.767 138.63C208.043 138.63 209.309 138.746 210.566 138.978C210.991 139.055 211.329 139.268 211.581 139.616C211.851 139.945 211.987 140.331 211.987 140.776C211.987 141.143 211.842 141.443 211.552 141.675C211.262 141.888 210.933 141.946 210.566 141.849C209.483 141.578 208.342 141.443 207.144 141.443C205.404 141.443 204.534 141.926 204.534 142.893C204.534 143.357 204.698 143.744 205.027 144.053C205.355 144.362 205.916 144.604 206.709 144.778C208.932 145.223 210.45 145.822 211.262 146.576C212.093 147.33 212.509 148.432 212.509 149.882C212.509 151.274 211.987 152.357 210.943 153.13C209.899 153.903 208.381 154.29 206.39 154.29C205.094 154.29 203.77 154.135 202.417 153.826C201.991 153.729 201.643 153.507 201.373 153.159C201.102 152.792 200.967 152.376 200.967 151.912C200.967 151.545 201.112 151.264 201.402 151.071C201.711 150.878 202.04 150.829 202.388 150.926C203.644 151.274 204.833 151.448 205.955 151.448C207.714 151.448 208.594 150.926 208.594 149.882C208.594 149.379 208.42 148.983 208.072 148.693C207.743 148.403 207.134 148.142 206.245 147.91ZM220.791 154.29C219.089 154.29 217.852 153.826 217.079 152.898C216.305 151.951 215.919 150.356 215.919 148.113V140.573C215.919 140.128 216.083 139.742 216.412 139.413C216.74 139.084 217.127 138.92 217.572 138.92H218.036C218.48 138.92 218.867 139.084 219.196 139.413C219.524 139.742 219.689 140.128 219.689 140.573V147.707C219.689 149.06 219.872 149.998 220.24 150.52C220.607 151.042 221.226 151.303 222.096 151.303C222.888 151.303 223.623 150.965 224.3 150.288C224.996 149.611 225.344 148.886 225.344 148.113V140.573C225.344 140.128 225.508 139.742 225.837 139.413C226.165 139.084 226.552 138.92 226.997 138.92H227.577C228.021 138.92 228.398 139.084 228.707 139.413C229.036 139.742 229.201 140.128 229.201 140.573V152.347C229.201 152.792 229.036 153.178 228.707 153.507C228.398 153.836 228.021 154 227.577 154H227.2C226.736 154 226.339 153.845 226.011 153.536C225.701 153.207 225.537 152.811 225.518 152.347L225.489 152.144C225.489 152.125 225.479 152.115 225.46 152.115C225.44 152.115 225.421 152.125 225.402 152.144C224.087 153.575 222.55 154.29 220.791 154.29ZM235.72 154C235.276 154 234.889 153.836 234.56 153.507C234.232 153.178 234.067 152.792 234.067 152.347V133.903C234.067 133.458 234.232 133.072 234.56 132.743C234.889 132.414 235.276 132.25 235.72 132.25H236.474C236.919 132.25 237.306 132.414 237.634 132.743C237.963 133.072 238.127 133.458 238.127 133.903V152.347C238.127 152.792 237.963 153.178 237.634 153.507C237.306 153.836 236.919 154 236.474 154H235.72ZM243.663 142.313C243.276 142.313 242.948 142.178 242.677 141.907C242.406 141.617 242.271 141.279 242.271 140.892C242.271 140.505 242.406 140.177 242.677 139.906C242.948 139.635 243.276 139.5 243.663 139.5H245.055C245.229 139.5 245.316 139.413 245.316 139.239V135.643C245.316 135.198 245.471 134.812 245.78 134.483C246.109 134.154 246.495 133.99 246.94 133.99H247.52C247.965 133.99 248.351 134.154 248.68 134.483C249.009 134.812 249.173 135.198 249.173 135.643V139.239C249.173 139.413 249.26 139.5 249.434 139.5H252.74C253.127 139.5 253.455 139.635 253.726 139.906C254.016 140.177 254.161 140.505 254.161 140.892C254.161 141.279 254.016 141.617 253.726 141.907C253.455 142.178 253.127 142.313 252.74 142.313H249.434C249.26 142.313 249.173 142.39 249.173 142.545V148.403C249.173 149.66 249.308 150.472 249.579 150.839C249.85 151.206 250.41 151.39 251.261 151.39C251.725 151.39 252.073 151.371 252.305 151.332C252.692 151.293 253.03 151.38 253.32 151.593C253.61 151.806 253.755 152.096 253.755 152.463C253.755 152.888 253.61 153.275 253.32 153.623C253.049 153.952 252.711 154.135 252.305 154.174C251.454 154.251 250.816 154.29 250.391 154.29C248.516 154.29 247.201 153.894 246.447 153.101C245.693 152.289 245.316 150.849 245.316 148.78V142.545C245.316 142.39 245.229 142.313 245.055 142.313H243.663ZM264.998 146.75C262.233 146.75 260.851 147.601 260.851 149.302C260.851 149.921 261.025 150.423 261.373 150.81C261.74 151.197 262.204 151.39 262.765 151.39C263.867 151.39 264.756 151.052 265.433 150.375C266.109 149.679 266.448 148.732 266.448 147.533V147.011C266.448 146.837 266.361 146.75 266.187 146.75H264.998ZM261.721 154.29C260.406 154.29 259.314 153.865 258.444 153.014C257.593 152.144 257.168 151.023 257.168 149.65C257.168 147.968 257.806 146.663 259.082 145.735C260.377 144.807 262.349 144.343 264.998 144.343H266.187C266.361 144.343 266.448 144.256 266.448 144.082V143.85C266.448 142.961 266.235 142.342 265.81 141.994C265.384 141.627 264.63 141.443 263.548 141.443C262.426 141.443 261.054 141.646 259.43 142.052C259.082 142.149 258.763 142.091 258.473 141.878C258.183 141.646 258.038 141.346 258.038 140.979C258.038 140.534 258.173 140.138 258.444 139.79C258.714 139.423 259.062 139.2 259.488 139.123C260.957 138.794 262.339 138.63 263.635 138.63C266.109 138.63 267.84 139.075 268.826 139.964C269.812 140.853 270.305 142.41 270.305 144.633V152.347C270.305 152.792 270.14 153.178 269.812 153.507C269.502 153.836 269.125 154 268.681 154H268.362C267.898 154 267.501 153.845 267.173 153.536C266.844 153.207 266.67 152.811 266.651 152.347V151.941C266.651 151.922 266.641 151.912 266.622 151.912C266.583 151.912 266.564 151.922 266.564 151.941C265.384 153.507 263.77 154.29 261.721 154.29ZM275.801 154C275.357 154 274.97 153.836 274.641 153.507C274.313 153.178 274.148 152.792 274.148 152.347V140.573C274.148 140.128 274.313 139.742 274.641 139.413C274.97 139.084 275.357 138.92 275.801 138.92H276.178C276.642 138.92 277.029 139.084 277.338 139.413C277.667 139.722 277.841 140.109 277.86 140.573V140.776C277.86 140.795 277.87 140.805 277.889 140.805C277.909 140.805 277.928 140.795 277.947 140.776C279.262 139.345 280.799 138.63 282.558 138.63C284.318 138.63 285.594 139.133 286.386 140.138C287.198 141.124 287.604 142.777 287.604 145.097V152.347C287.604 152.792 287.44 153.178 287.111 153.507C286.783 153.836 286.396 154 285.951 154H285.458C285.014 154 284.627 153.836 284.298 153.507C283.989 153.178 283.834 152.792 283.834 152.347V145.387C283.834 143.937 283.641 142.951 283.254 142.429C282.887 141.888 282.22 141.617 281.253 141.617C280.461 141.617 279.726 141.955 279.049 142.632C278.373 143.309 278.034 144.034 278.034 144.807V152.347C278.034 152.792 277.87 153.178 277.541 153.507C277.213 153.836 276.826 154 276.381 154H275.801ZM297.919 154.29C295.522 154.29 293.676 153.633 292.38 152.318C291.085 150.984 290.437 149.031 290.437 146.46C290.437 143.927 291.056 141.994 292.293 140.66C293.55 139.307 295.329 138.63 297.629 138.63C298.654 138.63 299.64 138.698 300.587 138.833C301.032 138.891 301.399 139.094 301.689 139.442C301.979 139.79 302.124 140.196 302.124 140.66C302.124 141.047 301.97 141.356 301.66 141.588C301.37 141.82 301.032 141.897 300.645 141.82C299.891 141.665 299.05 141.588 298.122 141.588C296.904 141.588 295.996 141.975 295.396 142.748C294.797 143.521 294.497 144.759 294.497 146.46C294.497 148.2 294.816 149.447 295.454 150.201C296.092 150.955 297.078 151.332 298.412 151.332C299.36 151.332 300.181 151.245 300.877 151.071C301.245 150.974 301.573 151.042 301.863 151.274C302.173 151.506 302.327 151.806 302.327 152.173C302.327 152.637 302.182 153.043 301.892 153.391C301.622 153.739 301.264 153.952 300.819 154.029C299.833 154.203 298.867 154.29 297.919 154.29ZM309.782 153.768L304.968 140.457C304.852 140.07 304.9 139.722 305.113 139.413C305.325 139.084 305.635 138.92 306.041 138.92H306.911C307.394 138.92 307.839 139.075 308.245 139.384C308.651 139.674 308.912 140.051 309.028 140.515L311.725 149.998C311.725 150.017 311.734 150.027 311.754 150.027C311.773 150.027 311.783 150.017 311.783 149.998L314.886 140.486C315.04 140.022 315.321 139.645 315.727 139.355C316.133 139.065 316.577 138.92 317.061 138.92H317.757C318.163 138.92 318.472 139.084 318.685 139.413C318.917 139.742 318.955 140.09 318.801 140.457L311.725 158.843C311.551 159.307 311.261 159.674 310.855 159.945C310.449 160.235 309.994 160.38 309.492 160.38H308.796C308.409 160.38 308.1 160.216 307.868 159.887C307.655 159.578 307.626 159.239 307.781 158.872L309.782 154.232C309.82 154.155 309.84 154.077 309.84 154C309.84 153.923 309.82 153.845 309.782 153.768Z" fill="#DBDBDB"/>
<path d="M22 93C25.8658 166.1 116.435 155.701 113.95 93" stroke="#DBDBDB" stroke-width="14" stroke-linecap="round" stroke-linejoin="round"/>
<rect x="39.5" y="47.5" width="18" height="18" rx="9" fill="#DBDBDB" stroke="#DBDBDB"/>
<rect x="76.5" y="51.5" width="23" height="10" rx="2.5" fill="#DBDBDB" stroke="#DBDBDB"/>
</svg>
